<svg width="24" height="24" xmlns="http://www.w3.org/2000/svg"><g fill="none" fill-rule="evenodd"><path d="M0 0h24v24H0z"/><path d="M6.648 7.762a.5.5 0 0 1 .127-.7l1.164-.798a6.988 6.988 0 0 1 5.252-1.162c3.818.674 6.372 4.321 5.704 8.114-.67 3.793-4.317 6.347-8.135 5.674-1.845-.326-3.462-1.35-4.485-2.813l-3.11-4.445a.64.64 0 0 0-1.166.366L2 12c0 5.523 4.477 10 10 10s10-4.477 10-10S17.523 2 12 2a9.978 9.978 0 0 0-7.632 3.538 2.484 2.484 0 0 0-.146 3.036c1.475 2.136 4.138 5.942 4.138 5.942a4.378 4.378 0 0 0 2.851 1.811 4.403 4.403 0 0 0 5.108-3.565 4.403 4.403 0 0 0-3.58-5.097c-1.166-.205-2.334.05-3.36.769a1.854 1.854 0 0 1-2.58-.457 509.84 509.84 0 0 1-.151-.215z" fill="#24263A"/></g></svg>